<svg id="Capa_1" enable-background="new 0 0 512 512" height="512" viewBox="0 0 512 512" width="512" xmlns="http://www.w3.org/2000/svg"><g><g><path d="m181 281.98 45-25.98-45-25.98z"/><path d="m376 106h-361c-8.284 0-15 6.716-15 15v270c0 8.284 6.716 15 15 15h361c8.284 0 15-6.716 15-15v-270c0-8.284-6.716-15-15-15zm-112.5 162.99-90 51.961c-9.901 5.717-22.5-1.387-22.5-12.99v-103.922c0-11.521 12.503-18.763 22.5-12.99l90 51.961c9.964 5.751 10.014 20.199 0 25.98z"/></g><path d="m490.338 137.561-69.338 34.368v168.715l69.428 33.839c9.912 4.831 21.572-2.376 21.572-13.483v-210c0-11.093-11.679-18.387-21.662-13.439z"/></g></svg>